<?xml version="1.0" encoding="UTF-8"?>
<svg width="93px" height="106px" viewBox="0 0 93 106" version="1.1" xmlns="http://www.w3.org/2000/svg" xmlns:xlink="http://www.w3.org/1999/xlink">
    <!-- Generator: Sketch 47.1 (45422) - http://www.bohemiancoding.com/sketch -->
    <title>file--doc</title>
    <desc>Created with Sketch.</desc>
    <defs></defs>
    <g id="Symbols" stroke="none" stroke-width="1" fill="none" fill-rule="evenodd">
        <g id="file--doc">
            <g id="Path-2" fill="#CBC9CD">
                <g id="Group">
                    <path d="M2.0110626,2.00736845 L2.00021277,104 L83.836253,104 L83.836253,31.3201928 L55.1403679,2.20277036 L2.0110626,2.00736845 Z M0.0112761248,0 L55.9803815,0.20584628 L85.836253,30.5002951 L85.836253,106 L0,106 L0.0112761248,0 Z" id="Path-2" fill-rule="nonzero"></path>
                    <polygon id="Triangle" fill-rule="nonzero" points="83.0826977 29.9827586 85.0851064 31.9827586 53.9787234 31.9827586 53.9787234 0.913793103 55.9787234 2.91138733 55.9787234 29.9827586"></polygon>
                </g>
            </g>
            <g id="Group-3-Copy" transform="translate(44.000000, 67.000000)">
                <rect id="Rectangle-4" fill="#5F2DB4" x="0" y="5" width="49" height="24"></rect>
                <path d="M9.556,22.108 C9.24399844,22.108 8.98000108,22.0000011 8.764,21.784 C8.54799892,21.5679989 8.44,21.3040016 8.44,20.992 C8.44,20.6799984 8.54799892,20.4160011 8.764,20.2 C8.98000108,19.9839989 9.24399844,19.876 9.556,19.876 C9.86800156,19.876 10.1319989,19.9839989 10.348,20.2 C10.5640011,20.4160011 10.672,20.6799984 10.672,20.992 C10.672,21.3040016 10.5640011,21.5679989 10.348,21.784 C10.1319989,22.0000011 9.86800156,22.108 9.556,22.108 Z M16.648,21.118 C17.248003,21.118 17.7669978,20.8960022 18.205,20.452 C18.6430022,20.0079978 18.862,19.4380035 18.862,18.742 L18.862,16.798 C18.862,16.1259966 18.6490021,15.586002 18.223,15.178 C17.7969979,14.769998 17.2780031,14.566 16.666,14.566 C15.8979962,14.566 15.310002,14.8539971 14.902,15.43 C14.493998,16.0060029 14.29,16.8459945 14.29,17.95 C14.29,18.958005 14.4969979,19.7379972 14.911,20.29 C15.3250021,20.8420028 15.9039963,21.118 16.648,21.118 Z M16.648,13.486 C17.1520025,13.486 17.6169979,13.6149987 18.043,13.873 C18.4690021,14.1310013 18.7359995,14.4459981 18.844,14.818 L18.844,9.976 L20.23,9.976 L20.23,22 L19.024,22 L18.862,20.56 C18.6339989,21.1120028 18.3010022,21.5259986 17.863,21.802 C17.4249978,22.0780014 16.8700034,22.216 16.198,22.216 C15.2379952,22.216 14.4520031,21.8290039 13.84,21.055 C13.2279969,20.2809961 12.922,19.2520064 12.922,17.968 C12.922,16.5519929 13.2459968,15.4510039 13.894,14.665 C14.5420032,13.8789961 15.4599941,13.486 16.648,13.486 Z M29.806,17.788 C29.806,19.180007 29.4760033,20.2659961 28.816,21.046 C28.1559967,21.8260039 27.2500058,22.216 26.098,22.216 C24.9459942,22.216 24.0400033,21.8260039 23.38,21.046 C22.7199967,20.2659961 22.39,19.180007 22.39,17.788 C22.39,16.4199932 22.7169967,15.3610037 23.371,14.611 C24.0250033,13.8609962 24.9339942,13.486 26.098,13.486 C27.2620058,13.486 28.1709967,13.8609962 28.825,14.611 C29.4790033,15.3610037 29.806,16.4199932 29.806,17.788 Z M28.456,17.788 C28.456,16.7199947 28.261002,15.9220026 27.871,15.394 C27.480998,14.8659974 26.890004,14.602 26.098,14.602 C25.305996,14.602 24.715002,14.8659974 24.325,15.394 C23.9349981,15.9220026 23.74,16.7199947 23.74,17.788 C23.74,18.8920055 23.937998,19.7259972 24.334,20.29 C24.730002,20.8540028 25.3179961,21.136 26.098,21.136 C26.8780039,21.136 27.465998,20.8540028 27.862,20.29 C28.258002,19.7259972 28.456,18.8920055 28.456,17.788 Z M35.134,21.118 C35.6260025,21.118 36.0279984,20.9980012 36.34,20.758 C36.6520016,20.5179988 36.8739993,20.1640023 37.006,19.696 L38.158,19.948 C38.0379994,20.6920037 37.7080027,21.2559981 37.168,21.64 C36.6279973,22.0240019 35.9020046,22.216 34.99,22.216 C33.8979945,22.216 33.0310032,21.8320038 32.389,21.064 C31.7469968,20.2959962 31.426,19.2400067 31.426,17.896 C31.426,16.5279932 31.7589967,15.4510039 32.425,14.665 C33.0910033,13.8789961 33.9939943,13.486 35.134,13.486 C36.0100044,13.486 36.7029975,13.7079978 37.213,14.152 C37.7230026,14.5960022 38.0019998,15.2259959 38.05,16.042 L36.772,16.24 C36.6879996,15.7119974 36.4990015,15.3100014 36.205,15.034 C35.9109985,14.7579986 35.5240024,14.62 35.044,14.62 C34.3239964,14.62 33.760002,14.9139971 33.352,15.502 C32.943998,16.0900029 32.74,16.8939949 32.74,17.914 C32.74,18.8620047 32.9619978,19.632997 33.406,20.227 C33.8500022,20.821003 34.4259965,21.118 35.134,21.118 Z" id=".doc" fill="#F8F7F7"></path>
            </g>
        </g>
    </g>
</svg>